<?xml version="1.0" encoding="UTF-8" standalone="no"?>
<!-- Created with Inkscape (http://www.inkscape.org/) -->

<svg
   xmlns:dc="http://purl.org/dc/elements/1.1/"
   xmlns:cc="http://creativecommons.org/ns#"
   xmlns:rdf="http://www.w3.org/1999/02/22-rdf-syntax-ns#"
   xmlns:svg="http://www.w3.org/2000/svg"
   xmlns="http://www.w3.org/2000/svg"
   xmlns:sodipodi="http://sodipodi.sourceforge.net/DTD/sodipodi-0.dtd"
   xmlns:inkscape="http://www.inkscape.org/namespaces/inkscape"
   width="744.09448819"
   height="1052.3622047"
   id="svg2"
   version="1.1"
   inkscape:version="0.48.4 r9939"
   sodipodi:docname="rules.svg"
   inkscape:export-filename="/home/jimshoe/dev/anniversary_cards/rules.png"
   inkscape:export-xdpi="90"
   inkscape:export-ydpi="90">
  <defs
     id="defs4">
    <inkscape:path-effect
       effect="bend_path"
       id="path-effect3018"
       is_visible="true"
       bendpath="m 428.17578,370.2193 166.50557,0"
       prop_scale="1"
       scale_y_rel="false"
       vertical="false" />
  </defs>
  <sodipodi:namedview
     id="base"
     pagecolor="#ffffff"
     bordercolor="#666666"
     borderopacity="1.0"
     inkscape:pageopacity="0.0"
     inkscape:pageshadow="2"
     inkscape:zoom="1.4"
     inkscape:cx="356.62685"
     inkscape:cy="678.65965"
     inkscape:document-units="px"
     inkscape:current-layer="layer1"
     showgrid="false"
     inkscape:window-width="1366"
     inkscape:window-height="718"
     inkscape:window-x="0"
     inkscape:window-y="28"
     inkscape:window-maximized="1" />
  <metadata
     id="metadata7">
    <rdf:RDF>
      <cc:Work
         rdf:about="">
        <dc:format>image/svg+xml</dc:format>
        <dc:type
           rdf:resource="http://purl.org/dc/dcmitype/StillImage" />
        <dc:title />
      </cc:Work>
    </rdf:RDF>
  </metadata>
  <g
     inkscape:label="Layer 1"
     inkscape:groupmode="layer"
     id="layer1"
     style="display:inline">
    <rect
       style="fill:none;stroke:#ff00ff;stroke-width:1.47258055px;stroke-linecap:butt;stroke-linejoin:miter;stroke-opacity:1"
       id="rect2985"
       width="223.52742"
       height="313.5274"
       x="162.4809"
       y="215.74135"
       ry="9" />
    <flowRoot
       xml:space="preserve"
       id="flowRoot3755"
       style="font-size:40px;font-style:normal;font-variant:normal;font-weight:bold;font-stretch:normal;line-height:125%;letter-spacing:0px;word-spacing:0px;fill:#000000;fill-opacity:1;stroke:none;font-family:DilleniaUPC;-inkscape-font-specification:DilleniaUPC Bold"
       transform="translate(-151.47102,-12.142867)"
       inkscape:export-filename="/home/jimshoe/dev/anniversary_cards/flowRoot3062.png"
       inkscape:export-xdpi="2000"
       inkscape:export-ydpi="2000"><flowRegion
         id="flowRegion3757"><rect
           id="rect3759"
           width="248.57143"
           height="53.571449"
           x="301.42856"
           y="231.6479"
           style="font-style:normal;font-variant:normal;font-weight:bold;font-stretch:normal;font-family:DilleniaUPC;-inkscape-font-specification:DilleniaUPC Bold" /></flowRegion><flowPara
         style="font-size:16px;font-style:normal;font-variant:normal;font-weight:normal;font-stretch:normal;text-align:center;text-anchor:middle;font-family:Card Characters;-inkscape-font-specification:Card Characters"
         id="flowPara3107">Rules to Our </flowPara><flowPara
         style="font-size:16px;font-style:normal;font-variant:normal;font-weight:normal;font-stretch:normal;text-align:center;text-anchor:middle;font-family:Card Characters;-inkscape-font-specification:Card Characters"
         id="flowPara3283">Legendary Marriage</flowPara><flowPara
         id="flowPara3763"
         style="font-size:16px;font-style:normal;font-variant:normal;font-weight:bold;font-stretch:normal;font-family:DilleniaUPC;-inkscape-font-specification:DilleniaUPC Bold" /></flowRoot>    <flowRoot
       xml:space="preserve"
       id="flowRoot2994"
       style="fill:black;stroke:none;stroke-opacity:1;stroke-width:1px;stroke-linejoin:miter;stroke-linecap:butt;fill-opacity:1;font-family:Sans;font-style:normal;font-weight:normal;font-size:40px;line-height:125%;letter-spacing:0px;word-spacing:0px"><flowRegion
         id="flowRegion2996"><rect
           id="rect2998"
           width="194.28572"
           height="232.14285"
           x="292.85715"
           y="286.64789" /></flowRegion><flowPara
         id="flowPara3000" /></flowRoot>    <text
       xml:space="preserve"
       style="font-size:11px;font-style:normal;font-variant:normal;font-weight:normal;font-stretch:normal;line-height:100%;letter-spacing:0px;word-spacing:0px;writing-mode:lr-tb;fill:#000000;fill-opacity:1;stroke:none;font-family:DejaVu Sans;-inkscape-font-specification:DejaVu Sans"
       x="209.14557"
       y="280.69183"
       id="text3006"
       sodipodi:linespacing="100%"
       transform="scale(0.91104144,1.0976449)"
       inkscape:export-filename="/home/jimshoe/dev/anniversary_cards/flowRoot3062.png"
       inkscape:export-xdpi="2000"
       inkscape:export-ydpi="2000"><tspan
         sodipodi:role="line"
         x="209.14557"
         y="280.69183"
         style="font-size:14px;font-style:normal;font-variant:normal;font-weight:normal;font-stretch:normal;line-height:100%;writing-mode:lr-tb;font-family:Latin Modern Mono;-inkscape-font-specification:Latin Modern Mono"
         id="tspan3040"
         rotate="0 0 0 0 0 0 0 0 0 0 0 0 0 0 0 0 0 0 0 0 0 0 0 0 0 0">1.  Believe in each other</tspan><tspan
         sodipodi:role="line"
         x="209.14557"
         y="294.69183"
         style="font-size:14px;font-style:normal;font-variant:normal;font-weight:normal;font-stretch:normal;line-height:100%;writing-mode:lr-tb;font-family:Latin Modern Mono;-inkscape-font-specification:Latin Modern Mono"
         id="tspan3169"
         rotate="0 0 0 0 0 0 0 0 0 0 0 0 0 0 0 0 0 0 0 0 0 0 0">2.  Support each other</tspan><tspan
         sodipodi:role="line"
         x="209.14557"
         y="308.69183"
         style="font-size:14px;font-style:normal;font-variant:normal;font-weight:normal;font-stretch:normal;line-height:100%;writing-mode:lr-tb;font-family:Latin Modern Mono;-inkscape-font-specification:Latin Modern Mono"
         id="tspan3171"
         rotate="0 0 0 0 0 0 0 0 0 0 0 0 0 0 0 0">3.  Communicate</tspan><tspan
         sodipodi:role="line"
         x="209.14557"
         y="322.69183"
         style="font-size:14px;font-style:normal;font-variant:normal;font-weight:normal;font-stretch:normal;line-height:100%;writing-mode:lr-tb;font-family:Latin Modern Mono;-inkscape-font-specification:Latin Modern Mono"
         id="tspan3173"
         rotate="0 0 0 0 0 0 0 0 0 0">4.  Trust</tspan><tspan
         sodipodi:role="line"
         x="209.14557"
         y="336.69183"
         style="font-size:14px;font-style:normal;font-variant:normal;font-weight:normal;font-stretch:normal;line-height:100%;writing-mode:lr-tb;font-family:Latin Modern Mono;-inkscape-font-specification:Latin Modern Mono"
         id="tspan3175"
         rotate="0 0 0 0 0 0 0 0 0 0 0">5.  Listen</tspan><tspan
         sodipodi:role="line"
         x="209.14557"
         y="350.69183"
         style="font-size:14px;font-style:normal;font-variant:normal;font-weight:normal;font-stretch:normal;line-height:100%;writing-mode:lr-tb;font-family:Latin Modern Mono;-inkscape-font-specification:Latin Modern Mono"
         id="tspan3181"
         rotate="0 0 0 0 0 0 0 0 0 0 0 0">6.  Forgive</tspan><tspan
         sodipodi:role="line"
         x="209.14557"
         y="364.69183"
         style="font-size:14px;font-style:normal;font-variant:normal;font-weight:normal;font-stretch:normal;line-height:100%;writing-mode:lr-tb;font-family:Latin Modern Mono;-inkscape-font-specification:Latin Modern Mono"
         id="tspan3219"
         rotate="0 0 0 0 0 0 0 0 0 0 0 0 0 0 0 0 0 0 0">7.  Laugh together</tspan><tspan
         sodipodi:role="line"
         x="209.14557"
         y="378.69183"
         style="font-size:14px;font-style:normal;font-variant:normal;font-weight:normal;font-stretch:normal;line-height:100%;writing-mode:lr-tb;font-family:Latin Modern Mono;-inkscape-font-specification:Latin Modern Mono"
         id="tspan3221"
         rotate="0 0 0 0 0 0 0 0 0 0 0 0 0 0 0 0 0 0 0 0 0">8.  Be in the moment</tspan><tspan
         sodipodi:role="line"
         x="209.14557"
         y="392.69183"
         style="font-size:14px;font-style:normal;font-variant:normal;font-weight:normal;font-stretch:normal;line-height:100%;writing-mode:lr-tb;font-family:Latin Modern Mono;-inkscape-font-specification:Latin Modern Mono"
         id="tspan3223"
         rotate="0 0 0 0 0 0 0 0 0 0 0 0 0 0 0 0 0 0 0 0 0 0 0 0">9.  Hug/Kiss/Hold Hands</tspan><tspan
         sodipodi:role="line"
         x="209.14557"
         y="406.69183"
         style="font-size:14px;font-style:normal;font-variant:normal;font-weight:normal;font-stretch:normal;line-height:100%;writing-mode:lr-tb;font-family:Latin Modern Mono;-inkscape-font-specification:Latin Modern Mono"
         id="tspan3225"
         rotate="0 0 0 0 0 0 0 0 0 0 0 0 0 0 0 0 0 0 0">10. Say I Love You</tspan><tspan
         sodipodi:role="line"
         x="209.14557"
         y="420.69183"
         style="font-size:14px;font-style:normal;font-variant:normal;font-weight:normal;font-stretch:normal;line-height:100%;writing-mode:lr-tb;font-family:Latin Modern Mono;-inkscape-font-specification:Latin Modern Mono"
         id="tspan3227"
         rotate="0 0 0 0 0 0 0 0 0 0 0 0 0 0 0 0 0 0 0 0 0 0 0">11. Fight off Vampires</tspan><tspan
         sodipodi:role="line"
         x="209.14557"
         y="434.69183"
         style="font-size:14px;font-style:normal;font-variant:normal;font-weight:normal;font-stretch:normal;line-height:100%;writing-mode:lr-tb;font-family:Latin Modern Mono;-inkscape-font-specification:Latin Modern Mono"
         id="tspan3229"
         rotate="0 0 0 0 0 0 0 0 0 0 0 0 0 0 0 0 0 0 0 0 0 0 0 0 0 0">12. Don't become a Zombie</tspan><tspan
         sodipodi:role="line"
         x="209.14557"
         y="448.69183"
         style="font-size:14px;font-style:normal;font-variant:normal;font-weight:normal;font-stretch:normal;line-height:100%;writing-mode:lr-tb;font-family:Latin Modern Mono;-inkscape-font-specification:Latin Modern Mono"
         id="tspan3231"
         rotate="0 0 0 0 0 0 0 0 0 0 0 0 0 0 0">13. Forever!!!</tspan></text>
    <flowRoot
       xml:space="preserve"
       id="flowRoot3062"
       style="font-size:8px;font-style:normal;font-weight:normal;line-height:125%;letter-spacing:0px;word-spacing:0px;fill:#000000;fill-opacity:1;stroke:none;font-family:Sans"
       transform="translate(-108.36523,35.714279)"
       inkscape:export-xdpi="2000"
       inkscape:export-ydpi="2000"><flowRegion
         id="flowRegion3064"><rect
           id="rect3066"
           width="152.85713"
           height="31.428572"
           x="306.42856"
           y="463.79074" /></flowRegion><flowPara
         style="font-size:13px;font-style:normal;font-variant:normal;font-weight:normal;font-stretch:normal;text-align:center;line-height:100%;letter-spacing:-1.5px;text-anchor:middle;font-family:Latin Modern Mono;-inkscape-font-specification:Latin Modern Mono"
         id="flowPara3074">© Nathan &amp; Dana Warner </flowPara><flowPara
         style="font-size:13px;font-style:normal;font-variant:normal;font-weight:normal;font-stretch:normal;text-align:center;line-height:100%;letter-spacing:-1.5px;text-anchor:middle;font-family:Latin Modern Mono;-inkscape-font-specification:Latin Modern Mono"
         id="flowPara3081">October 13, 2013</flowPara></flowRoot>    <text
       xml:space="preserve"
       style="font-size:40px;font-style:normal;font-weight:normal;line-height:100%;letter-spacing:0px;word-spacing:0px;fill:#000000;fill-opacity:1;stroke:none;font-family:Sans"
       x="168.02658"
       y="248.36281"
       id="text3091"
       sodipodi:linespacing="100%"
       inkscape:export-filename="/home/jimshoe/dev/anniversary_cards/flowRoot3062.png"
       inkscape:export-xdpi="2000"
       inkscape:export-ydpi="2000"><tspan
         sodipodi:role="line"
         id="tspan3093"
         x="168.02658"
         y="248.36281"
         style="font-size:13px;font-style:normal;font-variant:normal;font-weight:normal;font-stretch:normal;font-family:DejaVu Sans Mono;-inkscape-font-specification:DejaVu Sans Mono" /><tspan
         sodipodi:role="line"
         x="168.02658"
         y="261.36279"
         style="font-size:11px;font-style:normal;font-variant:normal;font-weight:normal;font-stretch:normal;letter-spacing:-1.5px;font-family:Latin Modern Mono;-inkscape-font-specification:Latin Modern Mono"
         id="tspan3097" /><tspan
         sodipodi:role="line"
         x="168.02658"
         y="273.91254"
         style="font-size:13px;font-style:normal;font-variant:normal;font-weight:normal;font-stretch:normal;line-height:100%;letter-spacing:-1.5px;font-family:Latin Modern Mono;-inkscape-font-specification:Latin Modern Mono"
         id="tspan3103">Players receive a new card every year.</tspan><tspan
         sodipodi:role="line"
         x="168.02658"
         y="286.91254"
         style="font-size:13px;font-style:normal;font-variant:normal;font-weight:normal;font-stretch:normal;line-height:100%;letter-spacing:-1.5px;font-family:Latin Modern Mono;-inkscape-font-specification:Latin Modern Mono"
         id="tspan3111">Collect all 53 cards for grand surprise.</tspan><tspan
         sodipodi:role="line"
         x="168.02658"
         y="299.91254"
         style="font-size:13px;font-style:normal;font-variant:normal;font-weight:normal;font-stretch:normal;letter-spacing:-1.5px;font-family:DejaVu Sans Mono;-inkscape-font-specification:DejaVu Sans Mono"
         id="tspan3099" /><tspan
         sodipodi:role="line"
         x="168.02658"
         y="312.91254"
         style="font-size:13px;font-style:normal;font-variant:normal;font-weight:normal;font-stretch:normal;letter-spacing:-1.5px;font-family:DejaVu Sans Mono;-inkscape-font-specification:DejaVu Sans Mono"
         id="tspan3095" /></text>
    <flowRoot
       xml:space="preserve"
       id="flowRoot3183"
       style="fill:black;stroke:none;stroke-opacity:1;stroke-width:1px;stroke-linejoin:miter;stroke-linecap:butt;fill-opacity:1;font-family:Sans;font-style:normal;font-weight:normal;font-size:40px;line-height:125%;letter-spacing:0px;word-spacing:0px"><flowRegion
         id="flowRegion3185"><rect
           id="rect3187"
           width="165"
           height="187.14285"
           x="40.714287"
           y="450.93362" /></flowRegion><flowPara
         id="flowPara3189" /></flowRoot>    <text
       xml:space="preserve"
       style="font-size:40px;font-style:normal;font-weight:normal;line-height:125%;letter-spacing:0px;word-spacing:0px;fill:#000000;fill-opacity:1;stroke:none;font-family:Sans"
       x="115"
       y="263.79074"
       id="text3233"
       sodipodi:linespacing="125%"><tspan
         sodipodi:role="line"
         id="tspan3235" /></text>
    <rect
       style="fill:none;stroke:#ff00ff;stroke-width:1.47258055px;stroke-linecap:butt;stroke-linejoin:miter;stroke-opacity:1;display:inline"
       id="rect2985-5"
       width="223.52742"
       height="313.5274"
       x="399.66486"
       y="213.4556"
       ry="9" />
    <g
       transform="matrix(0.46586248,0,0,0.46586248,466.54411,311.17146)"
       id="g3077">
      <g
         id="g3079">
        <path
           style="fill:#ffffff;fill-rule:evenodd"
           inkscape:connector-curvature="0"
           clip-rule="evenodd"
           d="m -110.252,288.729 c 0,-107.986 0,-215.973 0,-323.959 137.733,0 275.465,0 413.198,0 0,107.986 0,215.973 0,323.959 -137.733,0 -275.465,0 -413.198,0 z m 30.757,-156.003 c -0.757,-0.418 -1.604,-1.299 -2.254,-1.171 -2.207,0.435 -4.436,1.04 -6.428,2.036 -0.395,0.197 0.22,2.414 0.352,3.548 -0.436,-0.354 -1.077,-0.956 -1.798,-1.44 -1.681,-1.128 -6.091,-0.246 -7.354,1.703 -1.691,2.609 1.171,3.126 2.379,4.104 4.077,3.297 8.29,6.433 12.531,9.521 3.329,2.423 4.38,5.387 3.312,9.435 -1.738,6.582 -3.166,13.246 -4.727,19.884 5.025,1.034 7.287,-0.254 8.075,-4.277 1.004,-5.129 1.923,-10.275 2.964,-15.396 0.314,-1.546 0.913,-3.036 1.381,-4.551 0.347,0.098 0.694,0.196 1.041,0.295 -1.418,7.008 -2.836,14.018 -4.293,21.225 6.286,-0.531 6.899,-1.106 7.802,-6.22 0.605,-3.429 1.307,-6.839 1.982,-10.254 0.538,-2.727 1.1,-5.45 1.651,-8.175 0.382,0.089 0.765,0.177 1.146,0.265 -1.534,6.929 -3.068,13.858 -4.626,20.894 5.534,0.139 7.366,-1.239 8.141,-5.537 0.993,-5.509 1.969,-11.022 3.067,-16.513 0.247,-1.232 0.966,-2.371 1.468,-3.553 0.271,0.115 0.542,0.23 0.814,0.347 -1.477,7.317 -2.953,14.636 -4.457,22.092 5.634,-0.229 6.952,-1.356 7.948,-6.39 1.208,-6.105 2.372,-12.22 3.554,-18.33 0.146,0.029 0.291,0.059 0.437,0.088 -1.241,7.131 -2.481,14.262 -3.78,21.726 4.58,-0.521 7.195,-1.787 7.784,-6.254 0.762,-5.784 2.312,-11.46 3.332,-17.216 0.438,-2.465 1.529,-3.994 3.891,-4.938 3.822,-1.528 7.523,-3.359 11.298,-5.009 6.13,-2.679 6.195,-2.694 9.666,3.075 15.16,25.197 32.41,48.927 50.989,71.667 16.824,20.592 34.074,40.835 51.268,61.121 3.708,4.375 4.111,4.274 7.787,-0.085 16.82,-19.945 33.868,-39.71 50.24,-60.019 21.719,-26.939 42.052,-54.868 58.785,-85.305 12.944,-23.543 17.064,-48.708 15.207,-75.123 -0.181,-2.572 0.501,-3.531 2.635,-4.424 9.211,-3.854 18.365,-7.846 27.549,-11.767 4.377,-1.868 4.355,-1.836 5.892,2.558 0.992,2.836 2.091,5.635 3.142,8.451 0.385,10e-4 0.77,0.002 1.154,0.003 4.868,-8.653 9.772,-17.286 14.502,-26.013 0.259,-0.477 -0.74,-2.266 -1.496,-2.557 -3.371,-1.3 -6.858,-2.305 -10.319,-3.364 -4.487,-1.374 -8.99,-2.7 -14.125,-4.237 0.11,1.906 0.044,3.111 0.272,4.257 0.674,3.384 3.054,7.641 1.792,9.88 -1.451,2.575 -6.052,3.43 -9.342,4.905 -7.606,3.41 -15.247,6.743 -22.697,10.03 -0.526,-0.458 -0.814,-0.583 -0.876,-0.78 -1.006,-3.197 -2.004,-6.397 -2.964,-9.609 -4.755,-15.908 -14.963,-26.584 -30.847,-31.443 -5.929,-1.813 -12.076,-3.185 -18.224,-3.951 -16.21,-2.019 -31.326,0.537 -44.232,11.616 -12.178,10.453 -20.804,23.446 -27.738,37.716 -0.884,1.816 -1.729,3.65 -2.685,5.67 C 91.92,46.3 91.715,46.14 91.612,45.929 91.171,45.035 90.741,44.135 90.341,43.223 84.211,29.274 76.414,16.448 65.264,5.87 57.67,-1.335 49.061,-6.852 38.537,-8.248 22.757,-10.34 7.403,-8.48 -7.12,-1.612 c -7.843,3.708 -14.651,8.798 -18.521,16.783 -2.651,5.471 -5.088,11.146 -6.747,16.978 -3.854,13.543 -4.55,27.367 -3.266,41.437 1.349,14.794 4.311,29.039 10.868,42.439 1.247,2.548 2.357,5.163 3.726,8.177 -6.037,2.759 -11.767,5.479 -17.61,7.928 -0.797,0.335 -2.394,-0.411 -3.222,-1.122 -3.601,-3.089 -7.049,-6.356 -10.562,-9.549 -4.038,-3.668 -7.538,-2.844 -9.907,2.321 -3.492,-1.521 -6.345,-0.483 -9.178,3.655 5.093,3.951 10.224,7.933 15.354,11.915 -0.207,0.305 -0.414,0.61 -0.62,0.916 -0.966,-0.62 -1.989,-1.167 -2.889,-1.871 -4.428,-3.459 -8.822,-6.965 -13.233,-10.445 -2.738,-2.161 -4.676,0.293 -6.674,1.423 -0.468,0.265 0.02,2.221 0.068,3.397 l 0.038,-0.044 z"
           id="path3081" />
        <path
           style="fill-rule:evenodd"
           inkscape:connector-curvature="0"
           clip-rule="evenodd"
           d="m -79.535,132.77 c -0.048,-1.177 -0.536,-3.133 -0.068,-3.397 1.999,-1.13 3.937,-3.584 6.674,-1.423 4.412,3.48 8.805,6.986 13.233,10.445 0.9,0.704 1.923,1.251 2.889,1.871 0.207,-0.306 0.414,-0.611 0.62,-0.916 -5.131,-3.982 -10.261,-7.964 -15.354,-11.915 2.833,-4.139 5.687,-5.176 9.178,-3.655 2.37,-5.165 5.869,-5.989 9.907,-2.321 3.513,3.192 6.961,6.46 10.562,9.549 0.828,0.711 2.425,1.457 3.222,1.122 5.843,-2.448 11.573,-5.169 17.61,-7.928 -1.369,-3.014 -2.479,-5.629 -3.726,-8.177 -6.557,-13.4 -9.519,-27.646 -10.868,-42.439 -1.284,-14.07 -0.588,-27.894 3.266,-41.437 1.659,-5.832 4.096,-11.506 6.747,-16.978 3.872,-7.985 10.68,-13.075 18.523,-16.783 14.523,-6.868 29.877,-8.728 45.657,-6.636 10.524,1.396 19.133,6.913 26.727,14.118 11.15,10.578 18.947,23.404 25.078,37.351 0.4,0.912 0.83,1.812 1.271,2.706 0.104,0.211 0.309,0.371 0.861,1.008 0.955,-2.021 1.801,-3.854 2.685,-5.67 6.935,-14.27 15.561,-27.263 27.738,-37.716 12.907,-11.08 28.023,-13.636 44.233,-11.617 6.147,0.766 12.295,2.138 18.224,3.951 15.884,4.858 26.092,15.535 30.847,31.443 0.96,3.211 1.958,6.412 2.964,9.609 0.062,0.197 0.35,0.322 0.876,0.78 7.45,-3.287 15.091,-6.62 22.697,-10.03 3.29,-1.475 7.891,-2.33 9.342,-4.905 1.262,-2.239 -1.118,-6.496 -1.792,-9.88 -0.229,-1.146 -0.162,-2.351 -0.272,-4.257 5.135,1.538 9.638,2.863 14.125,4.237 3.461,1.06 6.948,2.064 10.319,3.364 0.756,0.292 1.755,2.08 1.496,2.557 -4.729,8.728 -9.634,17.36 -14.502,26.013 -0.385,-10e-4 -0.77,-0.002 -1.154,-0.003 -1.051,-2.815 -2.149,-5.614 -3.142,-8.451 -1.536,-4.394 -1.515,-4.426 -5.892,-2.558 -9.184,3.92 -18.338,7.913 -27.549,11.767 -2.134,0.893 -2.815,1.853 -2.635,4.424 1.857,26.415 -2.263,51.58 -15.207,75.123 -16.733,30.437 -37.066,58.365 -58.785,85.305 -16.372,20.309 -33.42,40.073 -50.24,60.019 -3.676,4.359 -4.079,4.46 -7.787,0.085 -17.194,-20.286 -34.444,-40.529 -51.268,-61.121 -18.579,-22.74 -35.829,-46.47 -50.989,-71.667 -3.471,-5.77 -3.536,-5.754 -9.666,-3.075 -3.775,1.649 -7.477,3.48 -11.298,5.009 -2.362,0.944 -3.454,2.474 -3.891,4.938 -1.021,5.756 -2.57,11.432 -3.332,17.216 -0.589,4.467 -3.204,5.733 -7.784,6.254 1.299,-7.464 2.539,-14.595 3.78,-21.726 -0.146,-0.029 -0.291,-0.059 -0.437,-0.088 -1.183,6.11 -2.346,12.225 -3.554,18.33 -0.996,5.033 -2.314,6.16 -7.948,6.39 1.504,-7.456 2.98,-14.774 4.457,-22.092 -0.271,-0.116 -0.542,-0.231 -0.814,-0.347 -0.502,1.182 -1.221,2.32 -1.468,3.553 -1.098,5.49 -2.074,11.004 -3.067,16.513 -0.775,4.298 -2.607,5.676 -8.141,5.537 1.558,-7.035 3.092,-13.965 4.626,-20.894 -0.382,-0.088 -0.764,-0.176 -1.146,-0.265 -0.551,2.725 -1.113,5.448 -1.651,8.175 -0.675,3.415 -1.376,6.825 -1.982,10.254 -0.903,5.113 -1.517,5.688 -7.802,6.22 1.458,-7.207 2.875,-14.217 4.293,-21.225 -0.347,-0.099 -0.694,-0.197 -1.041,-0.295 -0.468,1.515 -1.067,3.005 -1.381,4.551 -1.042,5.121 -1.96,10.268 -2.964,15.396 -0.789,4.023 -3.05,5.312 -8.075,4.277 1.561,-6.638 2.989,-13.302 4.727,-19.884 1.069,-4.048 0.018,-7.012 -3.312,-9.435 -4.241,-3.088 -8.454,-6.224 -12.531,-9.521 -1.208,-0.978 -4.07,-1.494 -2.379,-4.104 1.263,-1.949 5.673,-2.831 7.354,-1.703 0.721,0.484 1.362,1.086 1.798,1.44 -0.131,-1.134 -0.746,-3.351 -0.352,-3.548 1.993,-0.996 4.222,-1.602 6.428,-2.036 0.649,-0.128 1.497,0.753 2.254,1.172 4.615,3.879 9.229,7.757 13.844,11.636 0.292,-0.382 0.583,-0.764 0.875,-1.146 -4.922,-3.48 -9.841,-6.962 -14.761,-10.444 z M 92.319,52.491 C 91.132,49.87 90.404,48.348 89.746,46.797 84.296,33.958 77.487,21.962 67.937,11.674 58.931,1.974 48.439,-5.265 34.864,-6.317 22.569,-7.27 10.52,-5.901 -1.223,-1.554 c -13.853,5.128 -22.929,14.408 -27.689,28.368 -5.382,15.785 -6.231,31.854 -4.84,48.338 1.487,17.618 7.008,33.768 15.346,49.205 11.788,21.824 25.681,42.295 40.797,61.845 17.864,23.103 36.655,45.49 55.155,68.097 4.791,5.854 9.998,11.365 15.305,17.363 6.438,-7.269 12.646,-13.913 18.444,-20.9 12.914,-15.564 25.826,-31.138 38.368,-47.001 19.989,-25.281 38.819,-51.351 54.465,-79.656 10.712,-19.378 15.587,-40.101 15.9,-61.94 0.171,-11.847 -1.94,-23.501 -5.783,-34.84 C 209.12,12.204 199.162,2.129 183.822,-2.026 176.416,-4.032 168.69,-5.083 161.039,-5.909 149.532,-7.15 138.768,-4.707 129.051,1.918 114.094,12.115 104.642,26.63 96.878,42.498 c -1.439,2.941 -2.724,5.959 -4.559,9.993 z m 128.563,-8.405 c 1.773,-0.735 3.367,-1.375 4.945,-2.052 8.951,-3.837 17.951,-7.566 26.818,-11.588 3.265,-1.48 4.735,-0.793 5.53,2.61 0.603,2.585 1.64,5.069 2.762,8.437 4.631,-8.136 8.772,-15.415 13.115,-23.043 -7.615,-2.336 -14.534,-4.458 -22.029,-6.757 0.965,3.665 1.588,6.452 2.442,9.166 0.928,2.947 -0.033,4.433 -2.906,5.639 -9.668,4.06 -19.21,8.421 -28.81,12.647 -1.984,0.873 -3.7,1.808 -1.867,4.941 z M -75.762,155.602 c 10.738,-4.787 21.429,-9.552 32.119,-14.319 7.742,-3.453 15.509,-6.853 23.184,-10.448 0.809,-0.379 1.069,-1.929 1.583,-2.935 -1.027,-0.214 -2.049,-0.477 -3.087,-0.61 -0.315,-0.04 -0.678,0.277 -1.018,0.433 -17.352,7.921 -34.685,15.883 -52.075,23.719 -2.552,1.148 -2.58,2.246 -0.706,4.16 z m 28.914,9.001 c 3.409,-0.947 6.163,-10.294 7.057,-22.972 -1.487,1.493 -3.057,2.32 -3.304,3.44 -1.41,6.39 -2.505,12.85 -3.753,19.532 z m -11.6,-42.495 c -0.113,0.484 -0.228,0.968 -0.341,1.451 4.081,3.588 8.09,7.267 12.312,10.681 0.74,0.598 2.378,0.085 3.601,0.085 -3.756,-4.537 -7.573,-8.237 -11.63,-11.65 -0.863,-0.725 -2.605,-0.404 -3.942,-0.567 z m 3.514,45.665 c 0.588,0.2 1.177,0.4 1.765,0.601 3.736,-6.718 3.439,-14.604 5.526,-21.798 -0.581,-0.176 -1.162,-0.352 -1.743,-0.527 -3.572,6.717 -3.336,14.595 -5.548,21.724 z m -9.022,3.576 c 3.64,-0.966 7.247,-13.275 6.304,-21.212 -3.817,6.463 -4.216,13.928 -6.304,21.212 z m -9.874,-13.161 c -2.771,0.81 -6.932,13.779 -6.459,20.749 1.478,-1.632 2.937,-2.508 3.193,-3.652 1.256,-5.612 2.191,-11.296 3.266,-17.097 z m 6.332,-32.114 c -0.077,0.486 -0.153,0.972 -0.229,1.458 4.518,3.478 8.994,7.015 13.602,10.368 0.655,0.477 1.956,0.066 2.957,0.066 -4.022,-4.485 -8.062,-8.175 -12.338,-11.564 -0.871,-0.69 -2.639,-0.248 -3.992,-0.328 z m -4.442,48.099 c 0.275,0.247 0.55,0.494 0.825,0.741 0.782,-0.484 2.13,-0.852 2.258,-1.471 1.292,-6.294 2.384,-12.629 3.532,-18.952 -0.679,-0.14 -1.357,-0.278 -2.036,-0.418 -1.526,6.7 -3.052,13.4 -4.579,20.1 z m -5.273,-24.145 c 0.114,-0.426 0.228,-0.852 0.341,-1.277 -4.455,-3.524 -8.849,-7.134 -13.425,-10.494 -0.778,-0.572 -2.337,-0.082 -3.535,-0.082 4.464,4.437 8.946,7.956 13.547,11.312 0.755,0.549 2.035,0.378 3.072,0.541 z M -85.34,134.22 c -0.046,0.38 -0.093,0.759 -0.14,1.139 4.554,3.436 9.073,6.922 13.701,10.256 0.721,0.52 1.94,0.347 2.929,0.493 0.154,-0.381 0.308,-0.764 0.461,-1.145 -4.549,-3.581 -9.046,-7.231 -13.701,-10.669 -0.711,-0.526 -2.148,-0.074 -3.25,-0.074 z m 24.591,8.352 c 0.308,-0.461 0.615,-0.921 0.923,-1.382 -4.637,-3.644 -9.225,-7.354 -13.965,-10.857 -0.708,-0.523 -2.137,-0.073 -3.231,-0.073 -0.088,0.347 -0.176,0.693 -0.263,1.04 5.805,3.311 10.131,8.871 16.536,11.272 z m -20.433,-1.101 c -0.182,0.187 -0.365,0.372 -0.547,0.558 2.615,2.031 5.229,4.063 7.843,6.094 0.18,-0.234 0.36,-0.47 0.54,-0.704 -2.612,-1.983 -5.224,-3.966 -7.836,-5.948 z"
           id="path3083" />
        <path
           style="fill:#ffffff;fill-rule:evenodd"
           inkscape:connector-curvature="0"
           clip-rule="evenodd"
           d="m 92.319,52.491 c 1.835,-4.035 3.12,-7.052 4.56,-9.993 7.764,-15.867 17.216,-30.383 32.173,-40.58 9.717,-6.625 20.481,-9.068 31.988,-7.827 7.651,0.826 15.377,1.877 22.783,3.883 15.34,4.155 25.298,14.23 30.423,29.351 3.843,11.338 5.954,22.993 5.783,34.84 -0.313,21.839 -5.188,42.562 -15.9,61.94 -15.646,28.306 -34.476,54.375 -54.465,79.656 -12.542,15.863 -25.454,31.437 -38.368,47.001 -5.798,6.987 -12.007,13.632 -18.444,20.9 C 87.545,265.664 82.338,260.152 77.547,254.299 59.047,231.693 40.256,209.305 22.392,186.202 7.275,166.652 -6.617,146.181 -18.405,124.357 -26.743,108.919 -32.264,92.77 -33.751,75.152 c -1.391,-16.485 -0.542,-32.554 4.84,-48.338 4.76,-13.96 13.836,-23.24 27.689,-28.368 11.742,-4.347 23.791,-5.716 36.086,-4.763 13.576,1.052 24.067,8.291 33.074,17.992 9.55,10.287 16.358,22.284 21.809,35.123 0.657,1.55 1.386,3.073 2.572,5.693 z M 49.826,117.96 c -0.279,0.148 -0.559,0.298 -0.839,0.448 -2.026,-2.808 -4.323,-5.46 -6.029,-8.45 -4.882,-8.563 -9.467,-17.292 -14.301,-25.881 -1.165,-2.07 -1.331,-5.837 -5.029,-4.868 -3.327,0.872 -2.626,4.285 -2.647,6.689 -0.113,12.986 -0.037,25.976 0.166,38.961 0.019,1.198 1.213,3.225 2.14,3.4 2.464,0.469 3.02,-1.521 3.019,-3.61 0,-8.617 0,-17.236 0.019,-25.853 0.003,-1.301 0.115,-2.601 0.231,-5.068 4.406,6.975 8.162,12.967 11.966,18.929 2.685,4.208 5.187,8.572 8.296,12.447 1.014,1.263 3.768,1.781 5.561,1.518 1.025,-0.15 2.336,-2.505 2.469,-3.963 1.398,-15.283 2.61,-30.584 3.762,-45.889 0.071,-0.958 -0.806,-1.987 -1.241,-2.982 -1.127,0.595 -2.853,0.928 -3.253,1.842 -0.773,1.764 -0.934,3.844 -1.11,5.814 -1.098,12.169 -2.127,24.343 -3.18,36.516 z m 101.375,-14.186 c 0.058,0 0.114,0 0.172,0 0,6.739 -0.035,13.479 0.01,20.218 0.045,6.708 0.795,7.416 7.528,7.319 1.116,-0.016 2.247,-0.12 3.343,-0.332 10.558,-2.043 18.324,-8.131 24.13,-16.919 8.194,-12.404 3.538,-28.955 -10.342,-34.256 -6.126,-2.34 -13.087,-2.662 -19.723,-3.426 -3.334,-0.385 -5.22,1.608 -5.156,5.302 0.128,7.363 0.038,14.73 0.038,22.094 z m -39.404,4.506 c -4.058,0.375 -3.271,2.802 -3.3,4.639 -0.118,7.472 -0.083,7.472 -7.386,7.746 -0.499,0.02 -1.155,-0.152 -1.466,0.1 -0.851,0.691 -2.14,1.553 -2.152,2.363 -0.012,0.766 1.284,2.065 2.172,2.229 1.933,0.354 3.975,0.215 5.966,0.126 2.094,-0.094 2.937,0.78 2.859,2.866 -0.088,2.365 -0.197,4.768 0.133,7.093 0.121,0.851 1.593,2.225 2.24,2.116 0.971,-0.162 2.333,-1.313 2.506,-2.236 0.387,-2.05 0.255,-4.227 0.12,-6.338 -0.163,-2.526 0.718,-3.48 3.381,-3.597 1.91,-0.085 5.413,1.803 5.442,-2.231 0.029,-3.988 -3.453,-2.313 -5.43,-2.4 -2.633,-0.116 -3.554,-1.104 -3.395,-3.633 0.133,-2.111 0.202,-4.269 -0.097,-6.348 -0.145,-1.019 -1.196,-1.908 -1.593,-2.495 z"
           id="path3085" />
        <path
           style="fill:#ffffff;fill-rule:evenodd"
           inkscape:connector-curvature="0"
           clip-rule="evenodd"
           d="m 220.882,44.086 c -1.833,-3.133 -0.117,-4.068 1.868,-4.942 9.6,-4.226 19.142,-8.587 28.81,-12.647 2.873,-1.207 3.834,-2.692 2.906,-5.639 -0.854,-2.714 -1.478,-5.501 -2.442,-9.166 7.495,2.299 14.414,4.421 22.029,6.757 -4.343,7.629 -8.484,14.907 -13.115,23.043 -1.122,-3.368 -2.159,-5.852 -2.762,-8.437 -0.795,-3.403 -2.266,-4.09 -5.53,-2.61 -8.867,4.022 -17.867,7.751 -26.818,11.588 -1.579,0.677 -3.173,1.318 -4.946,2.053 z"
           id="path3087" />
        <path
           style="fill:#ffffff;fill-rule:evenodd"
           inkscape:connector-curvature="0"
           clip-rule="evenodd"
           d="m -75.762,155.602 c -1.874,-1.913 -1.846,-3.012 0.705,-4.161 17.39,-7.836 34.724,-15.798 52.075,-23.719 0.34,-0.155 0.703,-0.473 1.018,-0.433 1.039,0.134 2.06,0.396 3.087,0.61 -0.514,1.006 -0.774,2.556 -1.583,2.935 -7.675,3.596 -15.442,6.995 -23.184,10.448 -10.689,4.768 -21.38,9.532 -32.118,14.32 z"
           id="path3089" />
        <path
           style="fill:#ffffff;fill-rule:evenodd"
           inkscape:connector-curvature="0"
           clip-rule="evenodd"
           d="m -46.848,164.603 c 1.248,-6.682 2.342,-13.142 3.752,-19.531 0.247,-1.12 1.817,-1.947 3.304,-3.44 -0.893,12.677 -3.647,22.023 -7.056,22.971 z"
           id="path3091" />
        <path
           style="fill:#ffffff;fill-rule:evenodd"
           inkscape:connector-curvature="0"
           clip-rule="evenodd"
           d="m -58.448,122.108 c 1.337,0.162 3.079,-0.158 3.942,0.566 4.058,3.413 7.875,7.113 11.63,11.65 -1.223,0 -2.861,0.513 -3.601,-0.085 -4.222,-3.414 -8.231,-7.093 -12.312,-10.681 0.114,-0.482 0.228,-0.965 0.341,-1.45 z"
           id="path3093" />
        <path
           style="fill:#ffffff;fill-rule:evenodd"
           inkscape:connector-curvature="0"
           clip-rule="evenodd"
           d="m -54.934,167.773 c 2.212,-7.13 1.976,-15.008 5.548,-21.725 0.581,0.176 1.162,0.352 1.743,0.527 -2.087,7.194 -1.79,15.08 -5.526,21.798 -0.588,-0.199 -1.177,-0.399 -1.765,-0.6 z"
           id="path3095" />
        <path
           style="fill:#ffffff;fill-rule:evenodd"
           inkscape:connector-curvature="0"
           clip-rule="evenodd"
           d="m -63.956,171.349 c 2.088,-7.283 2.487,-14.749 6.304,-21.212 0.943,7.936 -2.663,20.246 -6.304,21.212 z"
           id="path3097" />
        <path
           style="fill:#ffffff;fill-rule:evenodd"
           inkscape:connector-curvature="0"
           clip-rule="evenodd"
           d="m -73.83,158.188 c -1.075,5.802 -2.011,11.485 -3.266,17.097 -0.256,1.145 -1.715,2.021 -3.193,3.652 -0.473,-6.97 3.688,-19.94 6.459,-20.749 z"
           id="path3099" />
        <path
           style="fill:#ffffff;fill-rule:evenodd"
           inkscape:connector-curvature="0"
           clip-rule="evenodd"
           d="m -67.498,126.074 c 1.354,0.08 3.121,-0.362 3.991,0.328 4.277,3.39 8.316,7.079 12.338,11.564 -1.001,0 -2.302,0.41 -2.957,-0.066 -4.608,-3.354 -9.083,-6.891 -13.602,-10.368 0.077,-0.486 0.153,-0.971 0.23,-1.458 z"
           id="path3101" />
        <path
           style="fill:#ffffff;fill-rule:evenodd"
           inkscape:connector-curvature="0"
           clip-rule="evenodd"
           d="m -71.94,174.173 c 1.527,-6.7 3.053,-13.399 4.58,-20.1 0.679,0.14 1.357,0.278 2.036,0.418 -1.148,6.323 -2.241,12.658 -3.532,18.952 -0.127,0.619 -1.476,0.986 -2.258,1.471 -0.276,-0.247 -0.551,-0.494 -0.826,-0.741 z"
           id="path3103" />
        <path
           style="fill:#ffffff;fill-rule:evenodd"
           inkscape:connector-curvature="0"
           clip-rule="evenodd"
           d="m -77.213,150.028 c -1.037,-0.163 -2.317,0.008 -3.071,-0.542 -4.602,-3.355 -9.083,-6.875 -13.547,-11.312 1.198,0 2.757,-0.49 3.535,0.082 4.576,3.36 8.97,6.97 13.425,10.494 -0.114,0.427 -0.228,0.853 -0.342,1.278 z"
           id="path3105" />
        <path
           style="fill:#ffffff;fill-rule:evenodd"
           inkscape:connector-curvature="0"
           clip-rule="evenodd"
           d="m -85.34,134.22 c 1.102,0 2.539,-0.452 3.251,0.074 4.654,3.438 9.152,7.088 13.701,10.669 -0.154,0.381 -0.308,0.764 -0.461,1.145 -0.989,-0.146 -2.208,0.026 -2.929,-0.493 -4.628,-3.334 -9.147,-6.82 -13.701,-10.256 0.046,-0.38 0.093,-0.759 0.139,-1.139 z"
           id="path3107" />
        <path
           style="fill:#ffffff;fill-rule:evenodd"
           inkscape:connector-curvature="0"
           clip-rule="evenodd"
           d="m -60.749,142.572 c -6.405,-2.401 -10.731,-7.961 -16.537,-11.272 0.087,-0.347 0.175,-0.693 0.263,-1.04 1.095,0 2.523,-0.45 3.231,0.073 4.741,3.503 9.328,7.214 13.965,10.857 -0.307,0.461 -0.614,0.921 -0.922,1.382 z"
           id="path3109" />
        <path
           style="fill:#ffffff;fill-rule:evenodd"
           inkscape:connector-curvature="0"
           clip-rule="evenodd"
           d="m -79.535,132.77 c 4.919,3.482 9.839,6.965 14.758,10.446 -0.292,0.383 -0.583,0.765 -0.875,1.146 -4.614,-3.879 -9.229,-7.757 -13.844,-11.636 10e-4,0 -0.039,0.044 -0.039,0.044 z"
           id="path3111" />
        <path
           style="fill:#ffffff;fill-rule:evenodd"
           inkscape:connector-curvature="0"
           clip-rule="evenodd"
           d="m -81.182,141.471 c 2.612,1.982 5.224,3.965 7.836,5.947 -0.18,0.234 -0.36,0.47 -0.54,0.704 -2.615,-2.031 -5.229,-4.063 -7.843,-6.094 0.183,-0.185 0.365,-0.371 0.547,-0.557 z"
           id="path3113" />
        <path
           style="fill-rule:evenodd"
           inkscape:connector-curvature="0"
           clip-rule="evenodd"
           d="m 49.826,117.96 c 1.053,-12.173 2.082,-24.347 3.179,-36.516 0.177,-1.971 0.337,-4.05 1.11,-5.814 0.4,-0.914 2.126,-1.247 3.253,-1.842 0.436,0.995 1.313,2.024 1.241,2.982 -1.151,15.305 -2.363,30.606 -3.762,45.889 -0.133,1.458 -1.443,3.813 -2.469,3.963 -1.793,0.264 -4.547,-0.255 -5.561,-1.518 -3.109,-3.875 -5.611,-8.239 -8.296,-12.447 -3.804,-5.962 -7.56,-11.954 -11.966,-18.929 -0.116,2.467 -0.229,3.767 -0.231,5.068 -0.02,8.617 -0.02,17.236 -0.019,25.853 0.001,2.09 -0.555,4.079 -3.019,3.61 -0.927,-0.176 -2.122,-2.202 -2.14,-3.4 -0.202,-12.985 -0.279,-25.975 -0.166,-38.961 0.021,-2.404 -0.68,-5.817 2.647,-6.689 3.698,-0.969 3.864,2.798 5.029,4.868 4.834,8.589 9.419,17.319 14.301,25.881 1.706,2.99 4.003,5.643 6.029,8.45 0.282,-0.15 0.561,-0.3 0.84,-0.448 z"
           id="path3115" />
        <path
           style="fill-rule:evenodd"
           inkscape:connector-curvature="0"
           clip-rule="evenodd"
           d="m 151.201,103.774 c 0,-7.365 0.09,-14.731 -0.038,-22.094 -0.063,-3.694 1.822,-5.687 5.156,-5.302 6.636,0.765 13.597,1.086 19.723,3.426 13.88,5.301 18.536,21.852 10.342,34.256 -5.806,8.788 -13.572,14.876 -24.13,16.919 -1.096,0.212 -2.227,0.316 -3.343,0.332 -6.733,0.097 -7.483,-0.611 -7.528,-7.319 -0.045,-6.739 -0.01,-13.479 -0.01,-20.218 -0.058,0 -0.114,0 -0.172,0 z m 5.766,-0.731 c 0.063,0 0.126,0 0.188,0 0,6.357 -0.002,12.715 0.002,19.071 10e-4,3.168 1.481,4.144 4.537,3.313 8.603,-2.338 15.693,-6.897 21.039,-14.054 2.397,-3.209 3.596,-6.799 3.019,-10.876 -1.769,-12.488 -12.563,-20.526 -26.958,-18.406 -0.74,0.109 -1.716,1.944 -1.745,2.999 -0.169,5.981 -0.082,11.969 -0.082,17.953 z"
           id="path3117" />
        <path
           style="fill-rule:evenodd"
           inkscape:connector-curvature="0"
           clip-rule="evenodd"
           d="m 111.797,108.28 c 0.397,0.587 1.448,1.476 1.595,2.494 0.299,2.079 0.229,4.236 0.097,6.348 -0.159,2.529 0.762,3.517 3.395,3.633 1.977,0.088 5.459,-1.588 5.43,2.4 -0.029,4.034 -3.532,2.146 -5.442,2.231 -2.663,0.116 -3.544,1.07 -3.381,3.597 0.135,2.111 0.267,4.288 -0.12,6.338 -0.173,0.923 -1.535,2.074 -2.506,2.236 -0.647,0.108 -2.119,-1.266 -2.24,-2.116 -0.33,-2.325 -0.221,-4.728 -0.133,-7.093 0.077,-2.086 -0.766,-2.96 -2.859,-2.866 -1.991,0.089 -4.033,0.228 -5.966,-0.126 -0.888,-0.163 -2.184,-1.463 -2.172,-2.229 0.013,-0.811 1.302,-1.672 2.152,-2.363 0.311,-0.252 0.967,-0.08 1.466,-0.1 7.303,-0.274 7.268,-0.274 7.386,-7.746 0.027,-1.836 -0.76,-4.263 3.298,-4.638 z"
           id="path3119" />
        <path
           style="fill:#ffffff;fill-rule:evenodd"
           inkscape:connector-curvature="0"
           clip-rule="evenodd"
           d="m 156.967,103.043 c 0,-5.984 -0.087,-11.972 0.082,-17.952 0.029,-1.055 1.005,-2.89 1.745,-2.999 14.396,-2.12 25.189,5.917 26.958,18.406 0.577,4.078 -0.621,7.667 -3.019,10.876 -5.346,7.156 -12.437,11.716 -21.039,14.054 -3.056,0.83 -4.536,-0.146 -4.537,-3.313 -0.004,-6.356 -0.002,-12.714 -0.002,-19.071 -0.062,-10e-4 -0.125,-10e-4 -0.188,-10e-4 z"
           id="path3121" />
      </g>
    </g>
  </g>
</svg>
